<svg width="80" height="80" viewBox="0 0 80 80" fill="none" xmlns="http://www.w3.org/2000/svg">
<path fill-rule="evenodd" clip-rule="evenodd" d="M11.1352 51.8968H65.8411V45.7559H11.1352V51.8968ZM49.0099 61.11H52.0433V63.8246H24.9329V61.11H27.9655C28.4697 61.11 28.8772 60.7031 28.8772 60.1997V53.7174H48.0981V60.1997C48.0981 60.7031 48.5066 61.11 49.0099 61.11ZM11.1352 43.9353H65.8411V13.0396H11.1352V43.9353ZM10.2234 11.219C9.7192 11.219 9.31165 11.6259 9.31165 12.1293V52.8071C9.31165 53.3105 9.7192 53.7174 10.2234 53.7174H27.0537V59.2894H24.0212C23.5169 59.2894 23.1094 59.6981 23.1094 60.1997V64.7349C23.1094 65.2364 23.5169 65.6452 24.0212 65.6452H52.9551C53.4584 65.6452 53.8669 65.2364 53.8669 64.7349V60.1997C53.8669 59.6981 53.4584 59.2894 52.9551 59.2894H49.9217V53.7174H66.7529C67.2561 53.7174 67.6646 53.3105 67.6646 52.8071V12.1293C67.6646 11.6259 67.2561 11.219 66.7529 11.219H10.2234Z" fill="#62E0D9"/>
<path fill-rule="evenodd" clip-rule="evenodd" d="M37.2399 47.6312C36.7368 47.6312 36.3281 48.0392 36.3281 48.5415C36.3281 49.0438 36.7368 49.4518 37.2399 49.4518C37.743 49.4518 38.1517 49.0438 38.1517 48.5415C38.1517 48.0392 37.743 47.6312 37.2399 47.6312Z" fill="#62E0D9"/>
<rect x="52.4593" y="29.146" width="19.7082" height="40.6115" rx="1.26244" fill="#1B2330" stroke="#62E0D9" stroke-width="1.26244"/>
<rect x="52.0557" y="33.2939" width="20.5154" height="0.455152" fill="white" stroke="#62E0D9" stroke-width="0.455152"/>
<rect x="52.0557" y="62.4236" width="20.5154" height="0.455152" fill="white" stroke="#62E0D9" stroke-width="0.455152"/>
<path fill-rule="evenodd" clip-rule="evenodd" d="M61.8576 66.7475C62.3611 66.7475 62.7693 66.34 62.7693 65.8372C62.7693 65.3345 62.3611 64.9269 61.8576 64.9269C61.354 64.9269 60.9458 65.3345 60.9458 65.8372C60.9458 66.34 61.354 66.7475 61.8576 66.7475Z" stroke="#62E0D9" stroke-width="0.776699"/>
<path fill-rule="evenodd" clip-rule="evenodd" d="M44.1541 23.0529C44.0781 23.0529 44.0781 23.0529 44.0022 23.0529L39.9752 24.6459L35.4164 23.0529L31.1615 24.4942C31.0095 24.5701 30.8575 24.6459 30.8575 24.8735V36.3282C30.8575 36.5558 31.0095 36.7075 31.2374 36.7075C31.3134 36.7075 31.3134 36.7075 31.3894 36.7075L35.4164 35.1144L39.9752 36.7075L44.2301 35.2662C44.3821 35.1903 44.534 35.0386 44.534 34.8869V23.4322C44.534 23.2046 44.3821 23.0529 44.1541 23.0529ZM39.9752 34.4317L35.4164 32.8956V24.1908L39.9752 25.7269V34.4317Z" fill="#62E0D9"/>
<path fill-rule="evenodd" clip-rule="evenodd" d="M32.6811 23.0529C31.6651 23.0529 30.8575 23.7584 30.8575 24.6459C30.8575 25.8293 32.6811 27.6044 32.6811 27.6044C32.6811 27.6044 34.5046 25.8293 34.5046 24.6459C34.5046 23.7584 33.697 23.0529 32.6811 23.0529ZM32.6811 25.3287C32.2883 25.3287 31.9797 25.0505 31.9797 24.6965C31.9797 24.3425 32.2883 24.0644 32.6811 24.0644C33.0738 24.0644 33.3824 24.3425 33.3824 24.6965C33.3824 25.0505 33.0738 25.3287 32.6811 25.3287Z" fill="white"/>
</svg>
