<svg width="80" height="24" fill="none" xmlns="http://www.w3.org/2000/svg"><path fill-rule="evenodd" clip-rule="evenodd" d="M0 7.556v.06l13.525 6.352 13.572-6.374v-.016L13.525 1.204 0 7.556zm4.876.03l8.649-4.063 8.65 4.063-8.65 4.062-8.65-4.062zm8.649 8.85L0 10.177v2.314l13.525 6.272 13.572-6.293v-2.315l-13.572 6.28zm0 4.693L0 14.871v2.315l13.525 6.272 13.572-6.294V14.85l-13.572 6.28zM76.916 12.102c0-.537-.092-1.037-.278-1.501a3.929 3.929 0 00-.76-1.219 3.49 3.49 0 00-1.124-.816 3.257 3.257 0 00-1.37-.293c-.486 0-.943.097-1.371.293a3.488 3.488 0 00-1.124.816 3.925 3.925 0 00-.76 1.219 4.006 4.006 0 00-.279 1.5c0 .538.093 1.038.278 1.502.186.464.44.87.76 1.219.322.348.697.62 1.125.816.428.195.885.293 1.37.293.486 0 .942-.098 1.37-.293a3.489 3.489 0 001.125-.816c.321-.348.575-.755.76-1.219.186-.464.278-.964.278-1.501zm3.084 0c0 .943-.171 1.817-.514 2.622a6.395 6.395 0 01-1.413 2.088 6.718 6.718 0 01-2.11 1.393 6.561 6.561 0 01-2.58.511c-.913 0-1.77-.17-2.57-.511a6.656 6.656 0 01-2.098-1.403 6.57 6.57 0 01-1.927-4.7 6.4 6.4 0 01.524-2.578 6.796 6.796 0 011.425-2.11c.599-.603 1.299-1.074 2.098-1.415.8-.341 1.649-.511 2.548-.511.914 0 1.774.17 2.58.51.807.342 1.51.806 2.11 1.393.6.588 1.07 1.288 1.413 2.1.343.812.514 1.683.514 2.61zm-14.283 6.223c-.242.116-.517.21-.824.283a4.132 4.132 0 01-.953.108c-.457 0-.896-.061-1.317-.185a2.872 2.872 0 01-1.103-.598 2.893 2.893 0 01-.75-1.077c-.185-.442-.278-.976-.278-1.6V.332h3.148v14.382c0 .522.103.881.31 1.077.208.196.454.294.74.294.356 0 .699-.11 1.027-.327v2.568zM59.1 5.792L53.533 20.74c-.414 1.117-.957 1.922-1.628 2.415-.67.493-1.47.74-2.398.74a3.753 3.753 0 01-.963-.13l-1.028-2.916c.242.116.492.206.75.271.256.066.499.098.727.098.485 0 .928-.112 1.328-.337.4-.225.706-.642.92-1.25l.429-1.263-4.775-12.576h3.361l2.849 8.094 2.676-8.094h3.32zM46.145 3.9h-8.051v4.047h7.944v2.742h-7.944v7.702h-3.255V1.005h11.306V3.9z" fill="#fff"/></svg>