<svg width="13" height="13" viewBox="0 0 13 13" fill="none" xmlns="http://www.w3.org/2000/svg">
<g id="phone-in-talk">
<path id="Shape" fill-rule="evenodd" clip-rule="evenodd" d="M12.2778 9.02778C11.4111 9.02778 10.5444 8.88333 9.67778 8.59444C9.46111 8.52222 9.17222 8.59444 8.95556 8.73889L7.36667 10.3278C5.34444 9.31667 3.68333 7.58333 2.6 5.56111L4.18889 3.97222C4.40556 3.75556 4.47778 3.46667 4.33333 3.25C4.11667 2.45556 3.97222 1.58889 3.97222 0.722222C3.97222 0.288889 3.68333 0 3.25 0H0.722222C0.288889 0 0 0.288889 0 0.722222C0 7.51111 5.48889 13 12.2778 13C12.7111 13 13 12.7111 13 12.2778V9.75C13 9.31667 12.7111 9.02778 12.2778 9.02778ZM11.5556 6.5H13C13 2.88889 10.1111 0 6.5 0V1.44444C9.31667 1.44444 11.5556 3.68333 11.5556 6.5ZM8.66667 6.5H10.1111C10.1111 4.47778 8.52222 2.88889 6.5 2.88889V4.33333C7.72778 4.33333 8.66667 5.27222 8.66667 6.5Z" fill="white"/>
</g>
</svg>
