<svg width="24" height="24" fill="none" xmlns="http://www.w3.org/2000/svg"><path fill-rule="evenodd" clip-rule="evenodd" d="M15.278 12.028a8.179 8.179 0 01-2.6-.434c-.217-.072-.506 0-.722.145l-1.59 1.589C8.345 12.317 6.684 10.583 5.6 8.56l1.589-1.589c.217-.216.289-.505.144-.722a9.713 9.713 0 01-.36-2.528c0-.433-.29-.722-.723-.722H3.722C3.29 3 3 3.289 3 3.722A12.267 12.267 0 0015.278 16c.433 0 .722-.289.722-.722V12.75c0-.433-.289-.722-.722-.722zM14.556 9.5H16C16 5.889 13.111 3 9.5 3v1.444A5.024 5.024 0 0114.556 9.5zm-2.89 0h1.445A3.576 3.576 0 009.5 5.889v1.444c1.228 0 2.167.94 2.167 2.167z" fill="#fff"/></svg>